<svg xmlns="http://www.w3.org/2000/svg" viewBox="0 0 800 520" width="800" height="520" role="img" aria-label="Sneaker store e-commerce illustration">
  <defs>
    <linearGradient id="sBg" x1="0" y1="0" x2="1" y2="1">
      <stop offset="0" stop-color="#101018"/>
      <stop offset="1" stop-color="#0a0a0f"/>
    </linearGradient>
    <radialGradient id="sGlow" cx="0.72" cy="0.22" r="0.7">
      <stop offset="0" stop-color="#22d3ee" stop-opacity="0.30"/>
      <stop offset="1" stop-color="#22d3ee" stop-opacity="0"/>
    </radialGradient>
    <linearGradient id="sShoe" x1="0" y1="0" x2="1" y2="0">
      <stop offset="0" stop-color="#22d3ee"/>
      <stop offset="1" stop-color="#34d399"/>
    </linearGradient>
  </defs>

  <rect width="800" height="520" fill="url(#sBg)"/>
  <rect width="800" height="520" fill="url(#sGlow)"/>

  <g stroke="#ffffff" stroke-opacity="0.05" stroke-width="1">
    <path d="M0 130H800M0 260H800M0 390H800M160 0V520M320 0V520M480 0V520M640 0V520"/>
  </g>

  <!-- sneaker silhouette -->
  <g transform="translate(96 150)">
    <path d="M18 168c-8 0-14-6-14-14v-28c0-9 5-15 13-19l52-25c9-4 15-11 19-20l16-38c4-10 12-16 23-16h20c12 0 20 8 21 20l3 27c1 13 8 22 20 27l72 30c14 6 22 16 24 31l3 21c1 10-6 18-16 18z"
          fill="url(#sShoe)" fill-opacity="0.16" stroke="url(#sShoe)" stroke-width="3" stroke-linejoin="round"/>
    <path d="M40 120c22 10 46 14 72 12M96 74c14 12 30 20 48 24" stroke="#22d3ee" stroke-width="3" stroke-opacity="0.8" fill="none" stroke-linecap="round"/>
    <path d="M132 34l26 12M124 52l30 14M116 70l32 15" stroke="#34d399" stroke-width="4" stroke-opacity="0.9" stroke-linecap="round"/>
    <rect x="4" y="154" width="286" height="14" rx="7" fill="#22d3ee" fill-opacity="0.5"/>
  </g>

  <!-- product cards -->
  <g transform="translate(452 96)">
    <g fill="#ffffff" fill-opacity="0.06" stroke="#ffffff" stroke-opacity="0.12">
      <rect x="0" y="0" width="120" height="150" rx="16"/>
      <rect x="140" y="0" width="120" height="150" rx="16"/>
      <rect x="0" y="172" width="120" height="150" rx="16"/>
      <rect x="140" y="172" width="120" height="150" rx="16"/>
    </g>
    <g fill="#22d3ee" fill-opacity="0.22">
      <rect x="18" y="20" width="84" height="62" rx="10"/>
      <rect x="158" y="20" width="84" height="62" rx="10"/>
      <rect x="18" y="192" width="84" height="62" rx="10"/>
      <rect x="158" y="192" width="84" height="62" rx="10"/>
    </g>
    <g fill="#e2e8f0" fill-opacity="0.35">
      <rect x="18" y="94" width="66" height="9" rx="4.5"/>
      <rect x="158" y="94" width="66" height="9" rx="4.5"/>
      <rect x="18" y="266" width="66" height="9" rx="4.5"/>
      <rect x="158" y="266" width="66" height="9" rx="4.5"/>
    </g>
    <g fill="#34d399">
      <rect x="18" y="114" width="40" height="10" rx="5"/>
      <rect x="158" y="114" width="40" height="10" rx="5"/>
      <rect x="18" y="286" width="40" height="10" rx="5"/>
      <rect x="158" y="286" width="40" height="10" rx="5"/>
    </g>
  </g>

  <!-- cart badge -->
  <g transform="translate(600 400)">
    <circle cx="0" cy="0" r="44" fill="#22d3ee" fill-opacity="0.15" stroke="#22d3ee" stroke-width="2"/>
    <path d="M-20-14h6l7 26h20l7-18" fill="none" stroke="#22d3ee" stroke-width="3.5" stroke-linecap="round" stroke-linejoin="round"/>
    <circle cx="-6" cy="18" r="4" fill="#34d399"/>
    <circle cx="10" cy="18" r="4" fill="#34d399"/>
  </g>
</svg>
